<?xml version="1.0" encoding="utf-8"?>
<!-- Generator: Adobe Illustrator 24.1.2, SVG Export Plug-In . SVG Version: 6.00 Build 0)  -->
<svg version="1.1" id="Layer_1" xmlns="http://www.w3.org/2000/svg" xmlns:xlink="http://www.w3.org/1999/xlink" x="0px" y="0px"
	 viewBox="0 0 300 840" style="enable-background:new 0 0 300 840;" xml:space="preserve">
<g transform="translate(0.000000,1280.000000) scale(0.100000,-0.100000)">
	<path d="M2101,12782.2c-109-34.8-253.4-163.5-356.5-316.5c-54.5-80.8-156.3-281.7-206.2-408.4c-109.6-279-161.5-539.7-169.4-858.1
		c-5.9-229.8,8.5-426.1,57.8-793.8c25.6-192.4,26.3-200.3,14.4-210.8c-6.6-5.9-73.5-63-149.7-126.1
		C747.2,9614.2,464.9,9307,258,8942.6C137.9,8730.5,57.1,8485,26.9,8241.4c-10.5-82.7-10.5-273.8,0-364.4
		c28.9-256.7,116.9-518,245.6-732.1c90.6-151,246.2-328.3,385.4-439.2c262.6-208.8,564-341.4,848.3-372.3
		c83.4-9.2,320.4-3.3,399.2,9.2c30.9,5.3,57.1,8.5,57.8,7.2c1.3-0.7,27.6-187.1,58.4-414.3l55.8-412.3l1.3-154.3
		c0.7-163.5-3.3-204.2-33.5-311.9c-69.6-252.1-248.2-417.6-502.9-466.2c-67.6-13.1-214-12.5-288.2,0
		c-125.4,22.3-227.8,68.3-290.9,130.7l-39.4,39.4l68.9,5.3c206.8,16.4,334.2,89.3,403.8,230.5c34.1,69.6,44.6,128.7,40.7,231.1
		c-5.9,149-46.6,249.5-139.2,341.4c-58.4,58.4-103.1,87.3-175.3,113.6c-43.3,15.8-56.5,17.7-139.8,17.7c-72.9,0-99.1-2.6-128-12.5
		c-158.9-54.5-275.1-170.7-327.6-328.9c-28.2-84-36.1-143.8-31.5-236.4c13.8-267.9,169.4-506.9,411.7-632.3
		c72.9-38.1,139.8-61.7,232.4-81.4c86.7-18.4,295.5-20.4,387.4-3.3c269.8,51.2,462.9,168.1,586.3,356.5
		c132.6,202.2,164.1,430.7,111,813.5c-56.5,411.7-109.6,812.2-107.7,813.5c1.3,1.3,25.6,9.8,54.5,19.7
		c195.7,68.9,392.6,202.2,518.7,352.6c205.5,244.9,298.7,550.9,273.1,896.9c-15.1,204.8-51.9,348-129.3,504.2
		c-74.2,150.4-177.3,274.4-307.9,372.9c-66.3,49.9-202.2,120.2-282.3,145.8c-120.2,39.4-273.8,59.7-382.1,51.9
		c-59.7-3.9-60.4-3.9-63.7,11.2c-2,8.5-14.4,95.9-26.9,193c-13.1,97.8-38.1,286.3-56.5,420.2l-32.8,242.9l18.4,15.8
		c59.7,50.6,255.4,236.4,337.5,319.7c332.2,340.1,493.7,681.5,547.6,1158.2c37.4,336.2,39.4,557.4,5.9,797.7
		c-44.6,323.7-136.6,593.5-263.3,772.8C2240.2,12788.7,2194.9,12812.4,2101,12782.2z M2287.5,12040.9
		c65.7-28.9,112.9-93.2,133.9-183.2c12.5-53.8,13.8-180.6,2.6-254.7c-26.3-179.9-121.5-435.3-225.9-607.3
		c-96.5-157.6-284.9-384.7-434.6-522c-107.7-99.1-173.3-156.3-176-153.6c-2.6,2.6-16.4,96.5-30.2,204.8
		c-33.5,266.6-16.4,501,55.2,747.8c86.7,296.1,202.9,520,345.4,661.8c70.9,70.3,112.3,97.8,177.3,116.2
		C2174.6,12061.9,2248.7,12057.3,2287.5,12040.9z M1602.7,9077.8l50.6-378.8l-36.8-11.2c-150.4-46.6-332.9-168.7-441.2-294.8
		c-164.8-192.4-256.1-416.9-265.9-653.9c-9.8-251.5,80.1-494.4,244.2-660.5c93.9-95.9,200.9-156.3,313.2-178.6
		c46.6-9.2,51.9-9.2,67,1.3c19.7,12.5,22.3,36.8,6.6,53.2c-5.9,5.9-28.9,19.7-51.2,30.9c-163.5,82.1-269.8,229.1-303.3,420.9
		c-47.9,272.5,118.2,576.5,380.2,697.3c44,20.4,153.6,53.8,158.9,47.9c0.7-0.7,50.6-369.6,110.3-819.4
		c74.2-556.8,106.4-818.7,101.8-821.4c-3.9-2.6-36.8-9.2-73.5-15.1c-186.5-28.2-381.5-30.2-512.1-3.9
		c-267.9,53.2-556.8,220.6-721.6,419.5c-200.3,240.3-294.1,489.1-294.1,776.7c0,155.6,20.4,279,69.6,428.7
		c91.3,278.4,240.3,504.9,522,793.1c174,178.6,618.5,576.5,623.1,557.4C1551.5,9461.3,1575.1,9286,1602.7,9077.8z M1994,8148.8
		c109-21,233.1-74.8,319.7-140.5c62.4-47.3,154.3-147.1,191.1-208.1c88.6-147.7,120.8-281.7,114.2-478
		c-7.9-256.7-86.7-451.7-241-596.8c-70.3-66.3-205.5-148.4-269.8-164.8l-16.4-3.9l-17.7,133.3c-9.8,73.5-35.5,263.3-57.1,422.2
		c-113.6,843-137.9,1025.6-137.9,1038.7c0,13.8,2,14.4,31.5,11.2C1927.7,8160,1965.1,8154,1994,8148.8z"/>
</g>
</svg>
